<?xml version="1.0" encoding="UTF-8" standalone="no"?>
<svg
   width="24"
   height="24"
   viewBox="0 0 24 24"
   fill="none"
   stroke="#4d4d4d"
   stroke-width="2"
   stroke-linecap="round"
   stroke-linejoin="round"
   class="feather feather-settings"
   version="1.1"
   id="svg1"
   sodipodi:docname="settings.svg"
   inkscape:version="1.3.2 (091e20e, 2023-11-25, custom)"
   xmlns:inkscape="http://www.inkscape.org/namespaces/inkscape"
   xmlns:sodipodi="http://sodipodi.sourceforge.net/DTD/sodipodi-0.dtd"
   xmlns="http://www.w3.org/2000/svg"
   xmlns:svg="http://www.w3.org/2000/svg">
  <defs
     id="defs1" />
  <sodipodi:namedview
     id="namedview1"
     pagecolor="#505050"
     bordercolor="#eeeeee"
     borderopacity="1"
     inkscape:showpageshadow="0"
     inkscape:pageopacity="0"
     inkscape:pagecheckerboard="0"
     inkscape:deskcolor="#d1d1d1"
     inkscape:zoom="24.041631"
     inkscape:cx="6.7175144"
     inkscape:cy="12.395166"
     inkscape:window-width="1920"
     inkscape:window-height="1009"
     inkscape:window-x="-8"
     inkscape:window-y="114"
     inkscape:window-maximized="1"
     inkscape:current-layer="svg1" />
  <path
     id="path1"
     style="fill:#4d4d4d;fill-opacity:1;stroke-width:0.509444;stroke-dasharray:none"
     d="m 12,3.2794138 c -0.875057,5.046e-4 -1.584306,0.7097531 -1.584811,1.5848108 v 0.134131 c -0.0025,0.5216739 -0.314697,0.9919986 -0.7944686,1.1968623 H 9.5588137 C 9.0694698,6.4122466 8.4972759,6.3092516 8.1143246,5.9352099 l -0.047462,-0.047462 c -0.6193249,-0.6196182 -1.62376,-0.6196182 -2.2430849,0 -0.6196181,0.6193249 -0.6196181,1.6237599 0,2.2430848 l 0.047462,0.047462 C 6.2451011,8.5603981 6.3488683,9.1315268 6.1333113,9.6207203 5.9479639,10.124793 5.4733665,10.464376 4.936449,10.477096 H 4.864225 c -0.8758636,5.05e-4 -1.5854453,0.711011 -1.5848108,1.586874 5.046e-4,0.875058 0.709753,1.584306 1.5848108,1.584811 h 0.134131 c 0.5211802,0.0021 0.9913694,0.313441 1.1968623,0.792405 0.2170284,0.489344 0.1140335,1.061537 -0.2600081,1.444489 l -0.047462,0.04746 c -0.6196181,0.619324 -0.6196181,1.62376 0,2.243084 0.6193249,0.619618 1.6237601,0.619618 2.243085,0 l 0.047462,-0.04746 c 0.382103,-0.373861 0.9532318,-0.477629 1.4424254,-0.262071 0.5040724,0.185347 0.8436554,0.659944 0.8563754,1.196862 v 0.07223 c 5.06e-4,0.875864 0.711011,1.585446 1.586875,1.584811 0.875057,-5.05e-4 1.584306,-0.709754 1.58481,-1.584811 v -0.13413 c 0.0021,-0.521181 0.313442,-0.99137 0.792406,-1.196863 0.489343,-0.217028 1.061536,-0.114034 1.444488,0.260008 l 0.04746,0.04746 c 0.619325,0.619617 1.62376,0.619617 2.243085,0 0.619617,-0.619326 0.619617,-1.62376 0,-2.243086 l -0.04746,-0.04746 c -0.37386,-0.382103 -0.477628,-0.953231 -0.26207,-1.442426 0.204863,-0.479771 0.675188,-0.79197 1.196862,-0.794468 h 0.07223 c 0.875051,-5.09e-4 1.5843,-0.709758 1.584805,-1.584815 -5.05e-4,-0.875057 -0.709754,-1.584306 -1.584811,-1.584811 h -0.13413 c -0.521674,-0.0025 -0.991999,-0.314698 -1.196863,-0.7944687 V 9.5588135 C 17.587753,9.0694699 17.690748,8.4972761 18.06479,8.1143246 l 0.04746,-0.047462 c 0.619617,-0.6193249 0.619617,-1.62376 0,-2.243085 -0.619326,-0.6196182 -1.623761,-0.6196182 -2.243086,0 l -0.04746,0.047462 C 15.439602,6.2451012 14.868474,6.3488685 14.379279,6.1333113 13.899508,5.9284473 13.587309,5.4581227 13.584811,4.936449 V 4.8642249 C 13.584306,3.9891672 12.875057,3.2799188 12,3.2794138 Z m 0,4.1886297 c 2.502931,0 4.531956,2.029026 4.531956,4.5319565 0,2.502931 -2.029025,4.531956 -4.531956,4.531956 C 9.4970695,16.531956 7.4680435,14.502931 7.4680435,12 7.4680435,9.4970695 9.4970695,7.4680435 12,7.4680435 Z"
     sodipodi:nodetypes="cccccccccccccccccccccccccccccccccccccccccccccccccccsssss" />
</svg>
